<svg version="1.2" xmlns="http://www.w3.org/2000/svg" viewBox="0 0 1235 1080" width="1235" height="1080"><style>.a{stroke:#e1e1e1;stroke-width: 3;stroke-linejoin: round;;fill:#1e1e1e}.b{fill:#1e1e1e;stroke:#e1e1e1;stroke-linejoin:round;stroke-width:3}</style><path class="a" d="m689.8 703.3q-35.2 0-62-13.7-26.2-14.2-40.4-39.4-14.2-25.2-14.2-58.8v-75.7q0-34.1 14.2-58.8 14.2-25.3 40.4-38.9 26.8-14.2 62-14.2 35.7 0 62 14.2 26.3 13.6 40.5 38.9 14.1 24.7 14.1 58.8v51.5h-178.6v24.2q0 32 15.8 48.8 16.3 16.8 46.7 16.8 24.7 0 40-8.4 15.2-8.9 18.9-25.7h56.2q-6.3 36.7-37.8 58.8-31.6 21.6-77.8 21.6zm66.2-175l-4.2 4.7v-17.8q0-31.5-15.8-48.9-15.7-17.3-46.2-17.3-29.9 0-46.2 17.3-15.8 17.4-15.8 49.4v13.1zm209.6 264.3h-74v-52.5h72.5q28.9 0 45.1-15.8 16.3-15.8 16.3-44.7v-218.5h-118.2v-52h175v271.1q0 52-31.6 82.4-31.5 30-85.1 30zm85.7-433.4q-18.4 0-29.4-9.5-11.1-10-11.1-26.2 0-16.9 11.1-26.3 11-10 29.4-10 18.4 0 29.4 10 11 9.4 11 26.3 0 16.2-11 26.2-11 9.5-29.4 9.5z"/><path fill-rule="evenodd" class="b" d="m311.8 680.5c0-3.6 0.7-7.2 2.1-10.6 1.4-3.4 3.5-6.4 6.1-9 2.5-2.6 5.6-4.6 9-6 3.3-1.4 6.9-2.1 10.6-2.1h166.4c7.4 0 14.5 2.9 19.7 8.1 5.2 5.2 8.1 12.3 8.1 19.6 0 7.4-2.9 14.4-8.1 19.6-5.2 5.3-12.3 8.2-19.7 8.2h-166.4c-3.7 0-7.3-0.7-10.6-2.1-3.4-1.4-6.5-3.5-9-6.1-2.6-2.5-4.7-5.6-6.1-9-1.4-3.3-2.1-6.9-2.1-10.6zm-119.1-269.3c-5.2-5.2-12.2-8.1-19.6-8.1-7.4 0-14.4 2.9-19.6 8.1-5.2 5.2-8.1 12.3-8.1 19.6 0 7.4 2.9 14.4 8.1 19.6l91.3 91.4-91.3 91.3c-5.2 5.3-8.1 12.3-8.1 19.7 0 7.3 2.9 14.4 8.1 19.6 5.2 5.2 12.2 8.1 19.6 8.1 7.4 0 14.4-2.9 19.6-8.1l111-111c2.6-2.5 4.7-5.6 6.1-9 1.4-3.3 2.1-6.9 2.1-10.6 0-3.6-0.7-7.3-2.1-10.6-1.4-3.4-3.5-6.5-6.1-9z"/><path fill-rule="evenodd" class="b" d="m1080.4 0c20.2 0 40.3 4 59 11.7 18.7 7.8 35.7 19.2 50.1 33.5 14.3 14.3 25.6 31.3 33.4 50 7.8 18.8 11.7 38.8 11.7 59.1v771.4c0 20.3-3.9 40.3-11.7 59.1-7.8 18.7-19.1 35.7-33.4 50-14.4 14.3-31.4 25.7-50.1 33.5-18.7 7.7-38.8 11.7-59 11.7h-925.8c-20.2 0-40.3-4-59-11.7-18.7-7.8-35.7-19.2-50.1-33.5-14.3-14.3-25.6-31.3-33.4-50-7.8-18.8-11.7-38.8-11.7-59.1v-771.4c0-20.3 3.9-40.3 11.7-59.1 7.8-18.7 19.1-35.7 33.4-50 14.4-14.3 31.4-25.7 50.1-33.5 18.7-7.7 38.8-11.7 59-11.7zm-925.7 77.1c-10.1 0-20.1 2-29.5 5.9-9.4 3.9-17.9 9.6-25 16.7-7.2 7.2-12.9 15.7-16.7 25.1-3.9 9.3-5.9 19.4-5.9 29.5v771.4c0 10.1 2 20.2 5.9 29.5 3.8 9.4 9.5 17.9 16.7 25.1 7.1 7.1 15.6 12.8 25 16.7 9.4 3.9 19.4 5.9 29.5 5.9h925.7c10.2 0 20.2-2 29.6-5.9 9.3-3.9 17.8-9.6 25-16.7 7.2-7.2 12.8-15.7 16.7-25.1 3.9-9.3 5.9-19.4 5.9-29.5v-771.4c0-10.1-2-20.2-5.9-29.5-3.9-9.4-9.5-17.9-16.7-25.1-7.2-7.1-15.7-12.8-25-16.7-9.4-3.9-19.4-5.9-29.6-5.9z"/></svg>